<?xml version="1.0" encoding="UTF-8" standalone="no"?>
<!DOCTYPE svg PUBLIC "-//W3C//DTD SVG 1.1//EN" "http://www.w3.org/Graphics/SVG/1.1/DTD/svg11.dtd">
<svg width="100%" height="100%" viewBox="0 0 125 134" version="1.1" xmlns="http://www.w3.org/2000/svg" xmlns:xlink="http://www.w3.org/1999/xlink" xml:space="preserve" xmlns:serif="http://www.serif.com/" style="fill-rule:evenodd;clip-rule:evenodd;stroke-linejoin:round;stroke-miterlimit:2;">
    <g transform="matrix(1,0,0,1,-1386.5,-1465)">
        <g id="Regular-L" transform="matrix(1,0,0,1,1378.95,1556)">
            <path d="M70.293,-91C88.298,-90.853 103.226,-88.794 112.203,-84.683C112.458,-84.569 112.833,-84.382 113.313,-84.117C114.05,-83.707 114.856,-83.206 115.712,-82.608C118.101,-80.935 120.471,-78.796 122.673,-76.139C128.86,-68.671 132.545,-58.614 132.545,-45.839C132.545,-45.778 132.546,-45.676 132.547,-45.526C132.559,-43.4 132.532,-40.512 132.43,-37.131C132.275,-31.97 131.979,-26.862 131.507,-22.066C131.117,-18.104 130.619,-14.492 129.997,-11.302C127.797,-0.019 112.133,10.471 95.257,12.48C83.575,13.87 77.387,14.316 69.865,13.972C64.311,13.719 58.833,13.139 53.585,12.332C52.46,12.159 51.378,11.98 50.343,11.798L50.281,11.787L50.313,11.903C52.058,18.217 57.202,19.955 69.919,20.426L70.382,20.443C75.194,20.607 80.172,20.1 84.96,19.151C86.42,18.862 87.749,18.553 88.917,18.246C89.599,18.066 90.062,17.932 90.275,17.865C93.093,16.979 95.986,19.002 96.12,21.953L96.585,32.156C96.664,33.887 95.742,35.51 94.214,36.328C93.786,36.557 93.06,36.902 92.047,37.322C90.436,37.989 88.554,38.649 86.411,39.259C81.663,40.611 76.285,41.542 70.316,41.873C60.994,42.383 50.943,41.391 40.242,38.567C27.353,35.165 18.718,26.725 13.684,13.985C9.732,3.983 8.06,-8.07 7.662,-24.341C7.588,-27.331 7.555,-29.966 7.55,-33.372L7.55,-35.312C7.552,-36.836 7.558,-38.523 7.568,-40.45C7.577,-42.326 7.582,-43.417 7.584,-44.324L7.585,-44.657C7.585,-44.711 7.585,-44.765 7.585,-44.819L7.586,-45.789C7.586,-58.614 11.272,-68.671 17.459,-76.139C19.66,-78.796 22.03,-80.935 24.42,-82.608C25.276,-83.206 26.081,-83.707 26.819,-84.117C27.298,-84.382 27.674,-84.569 27.888,-84.664C36.908,-88.795 51.828,-90.853 69.866,-91L70.293,-91ZM70.256,-82L69.903,-82C53.074,-81.863 39.21,-79.95 31.595,-76.463C31.294,-76.329 30.576,-75.931 29.58,-75.234C27.827,-74.007 26.054,-72.407 24.389,-70.397C19.529,-64.531 16.586,-56.5 16.586,-45.789L16.586,-44.969L16.585,-44.806L16.585,-44.476C16.583,-43.524 16.578,-42.41 16.568,-40.406C16.558,-38.5 16.552,-36.835 16.55,-35.332L16.55,-33.419C16.555,-30.064 16.587,-27.482 16.66,-24.564C17.456,8.081 24.145,25.011 42.539,29.865C52.321,32.447 61.431,33.346 69.822,32.886C75.106,32.594 79.826,31.777 83.945,30.603C85.208,30.243 86.35,29.868 87.367,29.491L87.452,29.458L87.379,27.844L87.321,27.856L86.709,27.98C81.293,29.053 75.649,29.628 70.075,29.438C61.59,29.148 57.056,28.571 52.495,26.613C45.987,23.819 41.951,18.542 40.905,10.625C40.708,9.21 40.611,7.715 40.611,6.157C40.611,3.24 43.343,1.094 46.176,1.785C46.262,1.805 46.451,1.85 46.74,1.915C47.236,2.026 47.819,2.152 48.484,2.287C50.4,2.678 52.572,3.07 54.954,3.437C59.9,4.197 65.064,4.744 70.276,4.982C77.167,5.297 82.975,4.878 94.194,3.544C107.597,1.948 119.843,-6.253 121.163,-13.024L121.282,-13.65C121.791,-16.388 122.212,-19.513 122.551,-22.948C123,-27.518 123.285,-32.43 123.434,-37.401C123.532,-40.666 123.559,-43.449 123.547,-45.473C123.546,-45.607 123.546,-45.7 123.545,-45.789C123.545,-56.501 120.602,-64.531 115.742,-70.397C114.077,-72.407 112.305,-74.007 110.552,-75.234C109.555,-75.931 108.838,-76.329 108.496,-76.482C100.923,-79.95 87.052,-81.863 70.256,-82Z" style="fill:rgb(131,149,167);fill-rule:nonzero;"/>
            <path d="M88.227,-65.482C93.95,-65.482 98.561,-63.476 102.083,-59.562C105.496,-55.649 107.196,-50.359 107.196,-43.702L107.196,-11.131L94.255,-11.131L94.255,-42.745C94.255,-49.409 91.443,-52.791 85.818,-52.791C79.599,-52.791 76.482,-48.779 76.482,-40.845L76.482,-23.541L63.617,-23.541L63.617,-40.845C63.617,-48.779 60.5,-52.791 54.281,-52.791C48.656,-52.791 45.844,-49.409 45.844,-42.745L45.844,-11.131L32.903,-11.131L32.903,-43.702C32.903,-50.359 34.602,-55.649 38.017,-59.562C41.538,-63.476 46.149,-65.482 51.873,-65.482C58.495,-65.482 63.51,-62.944 66.826,-57.867L70.049,-52.479L73.274,-57.867C76.589,-62.944 81.604,-65.482 88.227,-65.482Z" style="fill:rgb(131,149,167);fill-rule:nonzero;"/>
        </g>
    </g>
</svg>
